<?xml version="1.0" encoding="utf-8" standalone="no"?>
<!DOCTYPE svg PUBLIC "-//W3C//DTD SVG 1.1//EN"
  "http://www.w3.org/Graphics/SVG/1.1/DTD/svg11.dtd">
<svg xmlns:xlink="http://www.w3.org/1999/xlink" width="460.8pt" height="345.6pt" viewBox="0 0 460.8 345.6" xmlns="http://www.w3.org/2000/svg" version="1.1">
 <metadata>
  <rdf:RDF xmlns:dc="http://purl.org/dc/elements/1.1/" xmlns:cc="http://creativecommons.org/ns#" xmlns:rdf="http://www.w3.org/1999/02/22-rdf-syntax-ns#">
   <cc:Work>
    <dc:type rdf:resource="http://purl.org/dc/dcmitype/StillImage"/>
    <dc:date>2025-04-25T10:36:25.472633</dc:date>
    <dc:format>image/svg+xml</dc:format>
    <dc:creator>
     <cc:Agent>
      <dc:title>Matplotlib v3.10.1, https://matplotlib.org/</dc:title>
     </cc:Agent>
    </dc:creator>
   </cc:Work>
  </rdf:RDF>
 </metadata>
 <defs>
  <style type="text/css">*{stroke-linejoin: round; stroke-linecap: butt}</style>
 </defs>
 <g id="figure_1">
  <g id="patch_1">
   <path d="M 0 345.6 
L 460.8 345.6 
L 460.8 0 
L 0 0 
z
" style="fill: #ffffff"/>
  </g>
  <g id="axes_1">
   <g id="patch_2">
    <path d="M 376.545068 61.381669 
Q 331.679677 80.379972 287.84382 98.942318 
" clip-path="url(#p5354174ed8)" style="fill: none; stroke: #000000; stroke-linecap: round"/>
    <path d="M 292.307059 99.224276 
L 287.84382 98.942318 
L 290.74733 95.540902 
z
" clip-path="url(#p5354174ed8)" style="stroke: #000000; stroke-linecap: round"/>
   </g>
   <g id="patch_3">
    <path d="M 270.213608 101.943065 
Q 192.016172 94.573675 114.931837 87.309186 
" clip-path="url(#p5354174ed8)" style="fill: none; stroke: #000000; stroke-linecap: round"/>
    <path d="M 118.726542 89.675663 
L 114.931837 87.309186 
L 119.101842 85.693308 
z
" clip-path="url(#p5354174ed8)" style="stroke: #000000; stroke-linecap: round"/>
   </g>
   <g id="patch_4">
    <path d="M 222.070674 142.956695 
Q 167.529348 116.560026 113.994388 90.650415 
" clip-path="url(#p5354174ed8)" style="fill: none; stroke: #000000; stroke-linecap: round"/>
    <path d="M 116.723603 94.193209 
L 113.994388 90.650415 
L 118.466152 90.592719 
z
" clip-path="url(#p5354174ed8)" style="stroke: #000000; stroke-linecap: round"/>
   </g>
   <g id="text_1">
    <g id="patch_5">
     <path d="M 315.402844 91.556447 
L 351.033014 76.468809 
Q 352.414279 75.883911 351.829381 74.502646 
L 349.922673 69.999865 
Q 349.337775 68.618599 347.956509 69.203498 
L 312.326339 84.291136 
Q 310.945074 84.876034 311.529972 86.257299 
L 313.43668 90.76008 
Q 314.021579 92.141346 315.402844 91.556447 
z
" clip-path="url(#p5354174ed8)" style="fill: #ffffff; stroke: #ffffff; stroke-linejoin: miter"/>
    </g>
    <g clip-path="url(#p5354174ed8)">
     <!-- REACHING_DEF -->
     <g style="fill: #ff0000" transform="translate(314.358252 89.089594) rotate(-22.950286) scale(0.05 -0.05)">
      <defs>
       <path id="DejaVuSans-52" d="M 2841 2188 
Q 3044 2119 3236 1894 
Q 3428 1669 3622 1275 
L 4263 0 
L 3584 0 
L 2988 1197 
Q 2756 1666 2539 1819 
Q 2322 1972 1947 1972 
L 1259 1972 
L 1259 0 
L 628 0 
L 628 4666 
L 2053 4666 
Q 2853 4666 3247 4331 
Q 3641 3997 3641 3322 
Q 3641 2881 3436 2590 
Q 3231 2300 2841 2188 
z
M 1259 4147 
L 1259 2491 
L 2053 2491 
Q 2509 2491 2742 2702 
Q 2975 2913 2975 3322 
Q 2975 3731 2742 3939 
Q 2509 4147 2053 4147 
L 1259 4147 
z
" transform="scale(0.015625)"/>
       <path id="DejaVuSans-45" d="M 628 4666 
L 3578 4666 
L 3578 4134 
L 1259 4134 
L 1259 2753 
L 3481 2753 
L 3481 2222 
L 1259 2222 
L 1259 531 
L 3634 531 
L 3634 0 
L 628 0 
L 628 4666 
z
" transform="scale(0.015625)"/>
       <path id="DejaVuSans-41" d="M 2188 4044 
L 1331 1722 
L 3047 1722 
L 2188 4044 
z
M 1831 4666 
L 2547 4666 
L 4325 0 
L 3669 0 
L 3244 1197 
L 1141 1197 
L 716 0 
L 50 0 
L 1831 4666 
z
" transform="scale(0.015625)"/>
       <path id="DejaVuSans-43" d="M 4122 4306 
L 4122 3641 
Q 3803 3938 3442 4084 
Q 3081 4231 2675 4231 
Q 1875 4231 1450 3742 
Q 1025 3253 1025 2328 
Q 1025 1406 1450 917 
Q 1875 428 2675 428 
Q 3081 428 3442 575 
Q 3803 722 4122 1019 
L 4122 359 
Q 3791 134 3420 21 
Q 3050 -91 2638 -91 
Q 1578 -91 968 557 
Q 359 1206 359 2328 
Q 359 3453 968 4101 
Q 1578 4750 2638 4750 
Q 3056 4750 3426 4639 
Q 3797 4528 4122 4306 
z
" transform="scale(0.015625)"/>
       <path id="DejaVuSans-48" d="M 628 4666 
L 1259 4666 
L 1259 2753 
L 3553 2753 
L 3553 4666 
L 4184 4666 
L 4184 0 
L 3553 0 
L 3553 2222 
L 1259 2222 
L 1259 0 
L 628 0 
L 628 4666 
z
" transform="scale(0.015625)"/>
       <path id="DejaVuSans-49" d="M 628 4666 
L 1259 4666 
L 1259 0 
L 628 0 
L 628 4666 
z
" transform="scale(0.015625)"/>
       <path id="DejaVuSans-4e" d="M 628 4666 
L 1478 4666 
L 3547 763 
L 3547 4666 
L 4159 4666 
L 4159 0 
L 3309 0 
L 1241 3903 
L 1241 0 
L 628 0 
L 628 4666 
z
" transform="scale(0.015625)"/>
       <path id="DejaVuSans-47" d="M 3809 666 
L 3809 1919 
L 2778 1919 
L 2778 2438 
L 4434 2438 
L 4434 434 
Q 4069 175 3628 42 
Q 3188 -91 2688 -91 
Q 1594 -91 976 548 
Q 359 1188 359 2328 
Q 359 3472 976 4111 
Q 1594 4750 2688 4750 
Q 3144 4750 3555 4637 
Q 3966 4525 4313 4306 
L 4313 3634 
Q 3963 3931 3569 4081 
Q 3175 4231 2741 4231 
Q 1884 4231 1454 3753 
Q 1025 3275 1025 2328 
Q 1025 1384 1454 906 
Q 1884 428 2741 428 
Q 3075 428 3337 486 
Q 3600 544 3809 666 
z
" transform="scale(0.015625)"/>
       <path id="DejaVuSans-5f" d="M 3263 -1063 
L 3263 -1509 
L -63 -1509 
L -63 -1063 
L 3263 -1063 
z
" transform="scale(0.015625)"/>
       <path id="DejaVuSans-44" d="M 1259 4147 
L 1259 519 
L 2022 519 
Q 2988 519 3436 956 
Q 3884 1394 3884 2338 
Q 3884 3275 3436 3711 
Q 2988 4147 2022 4147 
L 1259 4147 
z
M 628 4666 
L 1925 4666 
Q 3281 4666 3915 4102 
Q 4550 3538 4550 2338 
Q 4550 1131 3912 565 
Q 3275 0 1925 0 
L 628 0 
L 628 4666 
z
" transform="scale(0.015625)"/>
       <path id="DejaVuSans-46" d="M 628 4666 
L 3309 4666 
L 3309 4134 
L 1259 4134 
L 1259 2759 
L 3109 2759 
L 3109 2228 
L 1259 2228 
L 1259 0 
L 628 0 
L 628 4666 
z
" transform="scale(0.015625)"/>
      </defs>
      <use xlink:href="#DejaVuSans-52"/>
      <use xlink:href="#DejaVuSans-45" transform="translate(69.482422 0)"/>
      <use xlink:href="#DejaVuSans-41" transform="translate(132.666016 0)"/>
      <use xlink:href="#DejaVuSans-43" transform="translate(199.324219 0)"/>
      <use xlink:href="#DejaVuSans-48" transform="translate(269.148438 0)"/>
      <use xlink:href="#DejaVuSans-49" transform="translate(344.34375 0)"/>
      <use xlink:href="#DejaVuSans-4e" transform="translate(373.835938 0)"/>
      <use xlink:href="#DejaVuSans-47" transform="translate(448.640625 0)"/>
      <use xlink:href="#DejaVuSans-5f" transform="translate(526.130859 0)"/>
      <use xlink:href="#DejaVuSans-44" transform="translate(576.130859 0)"/>
      <use xlink:href="#DejaVuSans-45" transform="translate(653.132812 0)"/>
      <use xlink:href="#DejaVuSans-46" transform="translate(716.316406 0)"/>
     </g>
    </g>
   </g>
   <g id="text_2">
    <g id="patch_6">
     <path d="M 172.384898 96.68601 
L 210.90718 100.31638 
Q 212.400563 100.457118 212.541301 98.963735 
L 213.000091 94.095462 
Q 213.140829 92.602079 211.647446 92.461341 
L 173.125163 88.83097 
Q 171.63178 88.690233 171.491043 90.183616 
L 171.032253 95.051889 
Q 170.891515 96.545272 172.384898 96.68601 
z
" clip-path="url(#p5354174ed8)" style="fill: #ffffff; stroke: #ffffff; stroke-linejoin: miter"/>
    </g>
    <g clip-path="url(#p5354174ed8)">
     <!-- REACHING_DEF -->
     <g style="fill: #ff0000" transform="translate(172.636247 94.018921) rotate(-354.6163) scale(0.05 -0.05)">
      <use xlink:href="#DejaVuSans-52"/>
      <use xlink:href="#DejaVuSans-45" transform="translate(69.482422 0)"/>
      <use xlink:href="#DejaVuSans-41" transform="translate(132.666016 0)"/>
      <use xlink:href="#DejaVuSans-43" transform="translate(199.324219 0)"/>
      <use xlink:href="#DejaVuSans-48" transform="translate(269.148438 0)"/>
      <use xlink:href="#DejaVuSans-49" transform="translate(344.34375 0)"/>
      <use xlink:href="#DejaVuSans-4e" transform="translate(373.835938 0)"/>
      <use xlink:href="#DejaVuSans-47" transform="translate(448.640625 0)"/>
      <use xlink:href="#DejaVuSans-5f" transform="translate(526.130859 0)"/>
      <use xlink:href="#DejaVuSans-44" transform="translate(576.130859 0)"/>
      <use xlink:href="#DejaVuSans-45" transform="translate(653.132812 0)"/>
      <use xlink:href="#DejaVuSans-46" transform="translate(716.316406 0)"/>
     </g>
    </g>
   </g>
   <g id="text_3">
    <g id="patch_7">
     <path d="M 148.39659 111.68289 
L 183.224996 128.538987 
Q 184.575179 129.192443 185.228635 127.842259 
L 187.358833 123.440802 
Q 188.012289 122.090618 186.662105 121.437162 
L 151.833699 104.581066 
Q 150.483516 103.92761 149.83006 105.277793 
L 147.699862 109.679251 
Q 147.046407 111.029434 148.39659 111.68289 
z
" clip-path="url(#p5354174ed8)" style="fill: #ffffff; stroke: #ffffff; stroke-linejoin: miter"/>
    </g>
    <g clip-path="url(#p5354174ed8)">
     <!-- REACHING_DEF -->
     <g style="fill: #ff0000" transform="translate(149.563621 109.271547) rotate(-334.174153) scale(0.05 -0.05)">
      <use xlink:href="#DejaVuSans-52"/>
      <use xlink:href="#DejaVuSans-45" transform="translate(69.482422 0)"/>
      <use xlink:href="#DejaVuSans-41" transform="translate(132.666016 0)"/>
      <use xlink:href="#DejaVuSans-43" transform="translate(199.324219 0)"/>
      <use xlink:href="#DejaVuSans-48" transform="translate(269.148438 0)"/>
      <use xlink:href="#DejaVuSans-49" transform="translate(344.34375 0)"/>
      <use xlink:href="#DejaVuSans-4e" transform="translate(373.835938 0)"/>
      <use xlink:href="#DejaVuSans-47" transform="translate(448.640625 0)"/>
      <use xlink:href="#DejaVuSans-5f" transform="translate(526.130859 0)"/>
      <use xlink:href="#DejaVuSans-44" transform="translate(576.130859 0)"/>
      <use xlink:href="#DejaVuSans-45" transform="translate(653.132812 0)"/>
      <use xlink:href="#DejaVuSans-46" transform="translate(716.316406 0)"/>
     </g>
    </g>
   </g>
   <g id="PathCollection_1">
    <defs>
     <path id="m81f39ac128" d="M -27.386128 27.386128 
L 27.386128 27.386128 
L 27.386128 -27.386128 
L -27.386128 -27.386128 
z
" style="stroke: #90ee90"/>
    </defs>
    <g clip-path="url(#p5354174ed8)">
     <use xlink:href="#m81f39ac128" x="73.832727" y="219.868674" style="fill: #90ee90; stroke: #90ee90"/>
     <use xlink:href="#m81f39ac128" x="384.520956" y="58.00427" style="fill: #90ee90; stroke: #90ee90"/>
     <use xlink:href="#m81f39ac128" x="307.364809" y="295.488" style="fill: #90ee90; stroke: #90ee90"/>
     <use xlink:href="#m81f39ac128" x="278.838017" y="102.755836" style="fill: #90ee90; stroke: #90ee90"/>
     <use xlink:href="#m81f39ac128" x="229.866469" y="146.729669" style="fill: #90ee90; stroke: #90ee90"/>
     <use xlink:href="#m81f39ac128" x="105.19462" y="86.391542" style="fill: #90ee90; stroke: #90ee90"/>
    </g>
   </g>
   <g id="text_4">
    <g clip-path="url(#p5354174ed8)">
     <!-- 1 -->
     <g transform="translate(71.923977 201.368237) scale(0.06 -0.06)">
      <defs>
       <path id="DejaVuSans-31" d="M 794 531 
L 1825 531 
L 1825 4091 
L 703 3866 
L 703 4441 
L 1819 4666 
L 2450 4666 
L 2450 531 
L 3481 531 
L 3481 0 
L 794 0 
L 794 531 
z
" transform="scale(0.015625)"/>
      </defs>
      <use xlink:href="#DejaVuSans-31"/>
     </g>
    </g>
    <g clip-path="url(#p5354174ed8)">
     <!-- 10 -->
     <g transform="translate(70.015227 208.086924) scale(0.06 -0.06)">
      <defs>
       <path id="DejaVuSans-30" d="M 2034 4250 
Q 1547 4250 1301 3770 
Q 1056 3291 1056 2328 
Q 1056 1369 1301 889 
Q 1547 409 2034 409 
Q 2525 409 2770 889 
Q 3016 1369 3016 2328 
Q 3016 3291 2770 3770 
Q 2525 4250 2034 4250 
z
M 2034 4750 
Q 2819 4750 3233 4129 
Q 3647 3509 3647 2328 
Q 3647 1150 3233 529 
Q 2819 -91 2034 -91 
Q 1250 -91 836 529 
Q 422 1150 422 2328 
Q 422 3509 836 4129 
Q 1250 4750 2034 4750 
z
" transform="scale(0.015625)"/>
      </defs>
      <use xlink:href="#DejaVuSans-31"/>
      <use xlink:href="#DejaVuSans-30" transform="translate(63.623047 0)"/>
     </g>
    </g>
    <g clip-path="url(#p5354174ed8)">
     <!-- LITERAL -->
     <g transform="translate(61.859915 214.805612) scale(0.06 -0.06)">
      <defs>
       <path id="DejaVuSans-4c" d="M 628 4666 
L 1259 4666 
L 1259 531 
L 3531 531 
L 3531 0 
L 628 0 
L 628 4666 
z
" transform="scale(0.015625)"/>
       <path id="DejaVuSans-54" d="M -19 4666 
L 3928 4666 
L 3928 4134 
L 2272 4134 
L 2272 0 
L 1638 0 
L 1638 4134 
L -19 4134 
L -19 4666 
z
" transform="scale(0.015625)"/>
      </defs>
      <use xlink:href="#DejaVuSans-4c"/>
      <use xlink:href="#DejaVuSans-49" transform="translate(55.712891 0)"/>
      <use xlink:href="#DejaVuSans-54" transform="translate(85.205078 0)"/>
      <use xlink:href="#DejaVuSans-45" transform="translate(146.289062 0)"/>
      <use xlink:href="#DejaVuSans-52" transform="translate(209.472656 0)"/>
      <use xlink:href="#DejaVuSans-41" transform="translate(274.955078 0)"/>
      <use xlink:href="#DejaVuSans-4c" transform="translate(343.363281 0)"/>
     </g>
    </g>
    <g clip-path="url(#p5354174ed8)">
     <!-- 20 -->
     <g transform="translate(70.015227 221.524299) scale(0.06 -0.06)">
      <defs>
       <path id="DejaVuSans-32" d="M 1228 531 
L 3431 531 
L 3431 0 
L 469 0 
L 469 531 
Q 828 903 1448 1529 
Q 2069 2156 2228 2338 
Q 2531 2678 2651 2914 
Q 2772 3150 2772 3378 
Q 2772 3750 2511 3984 
Q 2250 4219 1831 4219 
Q 1534 4219 1204 4116 
Q 875 4013 500 3803 
L 500 4441 
Q 881 4594 1212 4672 
Q 1544 4750 1819 4750 
Q 2544 4750 2975 4387 
Q 3406 4025 3406 3419 
Q 3406 3131 3298 2873 
Q 3191 2616 2906 2266 
Q 2828 2175 2409 1742 
Q 1991 1309 1228 531 
z
" transform="scale(0.015625)"/>
      </defs>
      <use xlink:href="#DejaVuSans-32"/>
      <use xlink:href="#DejaVuSans-30" transform="translate(63.623047 0)"/>
     </g>
    </g>
    <g clip-path="url(#p5354174ed8)">
     <!-- macro.c -->
     <g transform="translate(61.870696 228.242987) scale(0.06 -0.06)">
      <defs>
       <path id="DejaVuSans-6d" d="M 3328 2828 
Q 3544 3216 3844 3400 
Q 4144 3584 4550 3584 
Q 5097 3584 5394 3201 
Q 5691 2819 5691 2113 
L 5691 0 
L 5113 0 
L 5113 2094 
Q 5113 2597 4934 2840 
Q 4756 3084 4391 3084 
Q 3944 3084 3684 2787 
Q 3425 2491 3425 1978 
L 3425 0 
L 2847 0 
L 2847 2094 
Q 2847 2600 2669 2842 
Q 2491 3084 2119 3084 
Q 1678 3084 1418 2786 
Q 1159 2488 1159 1978 
L 1159 0 
L 581 0 
L 581 3500 
L 1159 3500 
L 1159 2956 
Q 1356 3278 1631 3431 
Q 1906 3584 2284 3584 
Q 2666 3584 2933 3390 
Q 3200 3197 3328 2828 
z
" transform="scale(0.015625)"/>
       <path id="DejaVuSans-61" d="M 2194 1759 
Q 1497 1759 1228 1600 
Q 959 1441 959 1056 
Q 959 750 1161 570 
Q 1363 391 1709 391 
Q 2188 391 2477 730 
Q 2766 1069 2766 1631 
L 2766 1759 
L 2194 1759 
z
M 3341 1997 
L 3341 0 
L 2766 0 
L 2766 531 
Q 2569 213 2275 61 
Q 1981 -91 1556 -91 
Q 1019 -91 701 211 
Q 384 513 384 1019 
Q 384 1609 779 1909 
Q 1175 2209 1959 2209 
L 2766 2209 
L 2766 2266 
Q 2766 2663 2505 2880 
Q 2244 3097 1772 3097 
Q 1472 3097 1187 3025 
Q 903 2953 641 2809 
L 641 3341 
Q 956 3463 1253 3523 
Q 1550 3584 1831 3584 
Q 2591 3584 2966 3190 
Q 3341 2797 3341 1997 
z
" transform="scale(0.015625)"/>
       <path id="DejaVuSans-63" d="M 3122 3366 
L 3122 2828 
Q 2878 2963 2633 3030 
Q 2388 3097 2138 3097 
Q 1578 3097 1268 2742 
Q 959 2388 959 1747 
Q 959 1106 1268 751 
Q 1578 397 2138 397 
Q 2388 397 2633 464 
Q 2878 531 3122 666 
L 3122 134 
Q 2881 22 2623 -34 
Q 2366 -91 2075 -91 
Q 1284 -91 818 406 
Q 353 903 353 1747 
Q 353 2603 823 3093 
Q 1294 3584 2113 3584 
Q 2378 3584 2631 3529 
Q 2884 3475 3122 3366 
z
" transform="scale(0.015625)"/>
       <path id="DejaVuSans-72" d="M 2631 2963 
Q 2534 3019 2420 3045 
Q 2306 3072 2169 3072 
Q 1681 3072 1420 2755 
Q 1159 2438 1159 1844 
L 1159 0 
L 581 0 
L 581 3500 
L 1159 3500 
L 1159 2956 
Q 1341 3275 1631 3429 
Q 1922 3584 2338 3584 
Q 2397 3584 2469 3576 
Q 2541 3569 2628 3553 
L 2631 2963 
z
" transform="scale(0.015625)"/>
       <path id="DejaVuSans-6f" d="M 1959 3097 
Q 1497 3097 1228 2736 
Q 959 2375 959 1747 
Q 959 1119 1226 758 
Q 1494 397 1959 397 
Q 2419 397 2687 759 
Q 2956 1122 2956 1747 
Q 2956 2369 2687 2733 
Q 2419 3097 1959 3097 
z
M 1959 3584 
Q 2709 3584 3137 3096 
Q 3566 2609 3566 1747 
Q 3566 888 3137 398 
Q 2709 -91 1959 -91 
Q 1206 -91 779 398 
Q 353 888 353 1747 
Q 353 2609 779 3096 
Q 1206 3584 1959 3584 
z
" transform="scale(0.015625)"/>
       <path id="DejaVuSans-2e" d="M 684 794 
L 1344 794 
L 1344 0 
L 684 0 
L 684 794 
z
" transform="scale(0.015625)"/>
      </defs>
      <use xlink:href="#DejaVuSans-6d"/>
      <use xlink:href="#DejaVuSans-61" transform="translate(97.412109 0)"/>
      <use xlink:href="#DejaVuSans-63" transform="translate(158.691406 0)"/>
      <use xlink:href="#DejaVuSans-72" transform="translate(213.671875 0)"/>
      <use xlink:href="#DejaVuSans-6f" transform="translate(252.535156 0)"/>
      <use xlink:href="#DejaVuSans-2e" transform="translate(311.966797 0)"/>
      <use xlink:href="#DejaVuSans-63" transform="translate(343.753906 0)"/>
     </g>
    </g>
    <g clip-path="url(#p5354174ed8)">
     <!-- main -->
     <g transform="translate(66.337415 234.961674) scale(0.06 -0.06)">
      <defs>
       <path id="DejaVuSans-69" d="M 603 3500 
L 1178 3500 
L 1178 0 
L 603 0 
L 603 3500 
z
M 603 4863 
L 1178 4863 
L 1178 4134 
L 603 4134 
L 603 4863 
z
" transform="scale(0.015625)"/>
       <path id="DejaVuSans-6e" d="M 3513 2113 
L 3513 0 
L 2938 0 
L 2938 2094 
Q 2938 2591 2744 2837 
Q 2550 3084 2163 3084 
Q 1697 3084 1428 2787 
Q 1159 2491 1159 1978 
L 1159 0 
L 581 0 
L 581 3500 
L 1159 3500 
L 1159 2956 
Q 1366 3272 1645 3428 
Q 1925 3584 2291 3584 
Q 2894 3584 3203 3211 
Q 3513 2838 3513 2113 
z
" transform="scale(0.015625)"/>
      </defs>
      <use xlink:href="#DejaVuSans-6d"/>
      <use xlink:href="#DejaVuSans-61" transform="translate(97.412109 0)"/>
      <use xlink:href="#DejaVuSans-69" transform="translate(158.691406 0)"/>
      <use xlink:href="#DejaVuSans-6e" transform="translate(186.474609 0)"/>
     </g>
    </g>
    <g clip-path="url(#p5354174ed8)">
     <!-- int -->
     <g transform="translate(69.921946 241.680362) scale(0.06 -0.06)">
      <defs>
       <path id="DejaVuSans-74" d="M 1172 4494 
L 1172 3500 
L 2356 3500 
L 2356 3053 
L 1172 3053 
L 1172 1153 
Q 1172 725 1289 603 
Q 1406 481 1766 481 
L 2356 481 
L 2356 0 
L 1766 0 
Q 1100 0 847 248 
Q 594 497 594 1153 
L 594 3053 
L 172 3053 
L 172 3500 
L 594 3500 
L 594 4494 
L 1172 4494 
z
" transform="scale(0.015625)"/>
      </defs>
      <use xlink:href="#DejaVuSans-69"/>
      <use xlink:href="#DejaVuSans-6e" transform="translate(27.783203 0)"/>
      <use xlink:href="#DejaVuSans-74" transform="translate(91.162109 0)"/>
     </g>
    </g>
   </g>
   <g id="text_5">
    <g clip-path="url(#p5354174ed8)">
     <!-- int i -->
     <g transform="translate(378.8233 35.977614) scale(0.06 -0.06)">
      <defs>
       <path id="DejaVuSans-20" transform="scale(0.015625)"/>
      </defs>
      <use xlink:href="#DejaVuSans-69"/>
      <use xlink:href="#DejaVuSans-6e" transform="translate(27.783203 0)"/>
      <use xlink:href="#DejaVuSans-74" transform="translate(91.162109 0)"/>
      <use xlink:href="#DejaVuSans-20" transform="translate(130.371094 0)"/>
      <use xlink:href="#DejaVuSans-69" transform="translate(162.158203 0)"/>
     </g>
    </g>
    <g clip-path="url(#p5354174ed8)">
     <!-- 12 -->
     <g transform="translate(380.703456 42.696301) scale(0.06 -0.06)">
      <use xlink:href="#DejaVuSans-31"/>
      <use xlink:href="#DejaVuSans-32" transform="translate(63.623047 0)"/>
     </g>
    </g>
    <g clip-path="url(#p5354174ed8)">
     <!-- METHOD_PARAMETER_IN -->
     <g transform="translate(347.164393 49.414989) scale(0.06 -0.06)">
      <defs>
       <path id="DejaVuSans-4d" d="M 628 4666 
L 1569 4666 
L 2759 1491 
L 3956 4666 
L 4897 4666 
L 4897 0 
L 4281 0 
L 4281 4097 
L 3078 897 
L 2444 897 
L 1241 4097 
L 1241 0 
L 628 0 
L 628 4666 
z
" transform="scale(0.015625)"/>
       <path id="DejaVuSans-4f" d="M 2522 4238 
Q 1834 4238 1429 3725 
Q 1025 3213 1025 2328 
Q 1025 1447 1429 934 
Q 1834 422 2522 422 
Q 3209 422 3611 934 
Q 4013 1447 4013 2328 
Q 4013 3213 3611 3725 
Q 3209 4238 2522 4238 
z
M 2522 4750 
Q 3503 4750 4090 4092 
Q 4678 3434 4678 2328 
Q 4678 1225 4090 567 
Q 3503 -91 2522 -91 
Q 1538 -91 948 565 
Q 359 1222 359 2328 
Q 359 3434 948 4092 
Q 1538 4750 2522 4750 
z
" transform="scale(0.015625)"/>
       <path id="DejaVuSans-50" d="M 1259 4147 
L 1259 2394 
L 2053 2394 
Q 2494 2394 2734 2622 
Q 2975 2850 2975 3272 
Q 2975 3691 2734 3919 
Q 2494 4147 2053 4147 
L 1259 4147 
z
M 628 4666 
L 2053 4666 
Q 2838 4666 3239 4311 
Q 3641 3956 3641 3272 
Q 3641 2581 3239 2228 
Q 2838 1875 2053 1875 
L 1259 1875 
L 1259 0 
L 628 0 
L 628 4666 
z
" transform="scale(0.015625)"/>
      </defs>
      <use xlink:href="#DejaVuSans-4d"/>
      <use xlink:href="#DejaVuSans-45" transform="translate(86.279297 0)"/>
      <use xlink:href="#DejaVuSans-54" transform="translate(149.462891 0)"/>
      <use xlink:href="#DejaVuSans-48" transform="translate(210.546875 0)"/>
      <use xlink:href="#DejaVuSans-4f" transform="translate(285.742188 0)"/>
      <use xlink:href="#DejaVuSans-44" transform="translate(364.453125 0)"/>
      <use xlink:href="#DejaVuSans-5f" transform="translate(441.455078 0)"/>
      <use xlink:href="#DejaVuSans-50" transform="translate(491.455078 0)"/>
      <use xlink:href="#DejaVuSans-41" transform="translate(545.382812 0)"/>
      <use xlink:href="#DejaVuSans-52" transform="translate(613.791016 0)"/>
      <use xlink:href="#DejaVuSans-41" transform="translate(679.273438 0)"/>
      <use xlink:href="#DejaVuSans-4d" transform="translate(747.681641 0)"/>
      <use xlink:href="#DejaVuSans-45" transform="translate(833.960938 0)"/>
      <use xlink:href="#DejaVuSans-54" transform="translate(897.144531 0)"/>
      <use xlink:href="#DejaVuSans-45" transform="translate(958.228516 0)"/>
      <use xlink:href="#DejaVuSans-52" transform="translate(1021.412109 0)"/>
      <use xlink:href="#DejaVuSans-5f" transform="translate(1090.894531 0)"/>
      <use xlink:href="#DejaVuSans-49" transform="translate(1140.894531 0)"/>
      <use xlink:href="#DejaVuSans-4e" transform="translate(1170.386719 0)"/>
     </g>
    </g>
    <g clip-path="url(#p5354174ed8)">
     <!-- 12 -->
     <g transform="translate(380.703456 56.300551) scale(0.06 -0.06)">
      <use xlink:href="#DejaVuSans-31"/>
      <use xlink:href="#DejaVuSans-32" transform="translate(63.623047 0)"/>
     </g>
    </g>
    <g clip-path="url(#p5354174ed8)">
     <!-- i -->
     <g transform="translate(383.687518 63.019239) scale(0.06 -0.06)">
      <use xlink:href="#DejaVuSans-69"/>
     </g>
    </g>
    <g clip-path="url(#p5354174ed8)">
     <!-- macro.c -->
     <g transform="translate(372.558925 69.737926) scale(0.06 -0.06)">
      <use xlink:href="#DejaVuSans-6d"/>
      <use xlink:href="#DejaVuSans-61" transform="translate(97.412109 0)"/>
      <use xlink:href="#DejaVuSans-63" transform="translate(158.691406 0)"/>
      <use xlink:href="#DejaVuSans-72" transform="translate(213.671875 0)"/>
      <use xlink:href="#DejaVuSans-6f" transform="translate(252.535156 0)"/>
      <use xlink:href="#DejaVuSans-2e" transform="translate(311.966797 0)"/>
      <use xlink:href="#DejaVuSans-63" transform="translate(343.753906 0)"/>
     </g>
    </g>
    <g clip-path="url(#p5354174ed8)">
     <!-- func_M -->
     <g transform="translate(373.924393 76.456614) scale(0.06 -0.06)">
      <defs>
       <path id="DejaVuSans-66" d="M 2375 4863 
L 2375 4384 
L 1825 4384 
Q 1516 4384 1395 4259 
Q 1275 4134 1275 3809 
L 1275 3500 
L 2222 3500 
L 2222 3053 
L 1275 3053 
L 1275 0 
L 697 0 
L 697 3053 
L 147 3053 
L 147 3500 
L 697 3500 
L 697 3744 
Q 697 4328 969 4595 
Q 1241 4863 1831 4863 
L 2375 4863 
z
" transform="scale(0.015625)"/>
       <path id="DejaVuSans-75" d="M 544 1381 
L 544 3500 
L 1119 3500 
L 1119 1403 
Q 1119 906 1312 657 
Q 1506 409 1894 409 
Q 2359 409 2629 706 
Q 2900 1003 2900 1516 
L 2900 3500 
L 3475 3500 
L 3475 0 
L 2900 0 
L 2900 538 
Q 2691 219 2414 64 
Q 2138 -91 1772 -91 
Q 1169 -91 856 284 
Q 544 659 544 1381 
z
M 1991 3584 
L 1991 3584 
z
" transform="scale(0.015625)"/>
      </defs>
      <use xlink:href="#DejaVuSans-66"/>
      <use xlink:href="#DejaVuSans-75" transform="translate(35.205078 0)"/>
      <use xlink:href="#DejaVuSans-6e" transform="translate(98.583984 0)"/>
      <use xlink:href="#DejaVuSans-63" transform="translate(161.962891 0)"/>
      <use xlink:href="#DejaVuSans-5f" transform="translate(216.943359 0)"/>
      <use xlink:href="#DejaVuSans-4d" transform="translate(266.943359 0)"/>
     </g>
    </g>
    <g clip-path="url(#p5354174ed8)">
     <!-- int -->
     <g transform="translate(380.610175 83.342176) scale(0.06 -0.06)">
      <use xlink:href="#DejaVuSans-69"/>
      <use xlink:href="#DejaVuSans-6e" transform="translate(27.783203 0)"/>
      <use xlink:href="#DejaVuSans-74" transform="translate(91.162109 0)"/>
     </g>
    </g>
   </g>
   <g id="text_6">
    <g clip-path="url(#p5354174ed8)">
     <!-- EACCES -->
     <g transform="translate(295.479653 273.544781) scale(0.06 -0.06)">
      <defs>
       <path id="DejaVuSans-53" d="M 3425 4513 
L 3425 3897 
Q 3066 4069 2747 4153 
Q 2428 4238 2131 4238 
Q 1616 4238 1336 4038 
Q 1056 3838 1056 3469 
Q 1056 3159 1242 3001 
Q 1428 2844 1947 2747 
L 2328 2669 
Q 3034 2534 3370 2195 
Q 3706 1856 3706 1288 
Q 3706 609 3251 259 
Q 2797 -91 1919 -91 
Q 1588 -91 1214 -16 
Q 841 59 441 206 
L 441 856 
Q 825 641 1194 531 
Q 1563 422 1919 422 
Q 2459 422 2753 634 
Q 3047 847 3047 1241 
Q 3047 1584 2836 1778 
Q 2625 1972 2144 2069 
L 1759 2144 
Q 1053 2284 737 2584 
Q 422 2884 422 3419 
Q 422 4038 858 4394 
Q 1294 4750 2059 4750 
Q 2388 4750 2728 4690 
Q 3069 4631 3425 4513 
z
" transform="scale(0.015625)"/>
      </defs>
      <use xlink:href="#DejaVuSans-45"/>
      <use xlink:href="#DejaVuSans-41" transform="translate(63.183594 0)"/>
      <use xlink:href="#DejaVuSans-43" transform="translate(129.841797 0)"/>
      <use xlink:href="#DejaVuSans-43" transform="translate(199.666016 0)"/>
      <use xlink:href="#DejaVuSans-45" transform="translate(269.490234 0)"/>
      <use xlink:href="#DejaVuSans-53" transform="translate(332.673828 0)"/>
     </g>
    </g>
    <g clip-path="url(#p5354174ed8)">
     <!-- 13 -->
     <g transform="translate(303.547309 280.263469) scale(0.06 -0.06)">
      <defs>
       <path id="DejaVuSans-33" d="M 2597 2516 
Q 3050 2419 3304 2112 
Q 3559 1806 3559 1356 
Q 3559 666 3084 287 
Q 2609 -91 1734 -91 
Q 1441 -91 1130 -33 
Q 819 25 488 141 
L 488 750 
Q 750 597 1062 519 
Q 1375 441 1716 441 
Q 2309 441 2620 675 
Q 2931 909 2931 1356 
Q 2931 1769 2642 2001 
Q 2353 2234 1838 2234 
L 1294 2234 
L 1294 2753 
L 1863 2753 
Q 2328 2753 2575 2939 
Q 2822 3125 2822 3475 
Q 2822 3834 2567 4026 
Q 2313 4219 1838 4219 
Q 1578 4219 1281 4162 
Q 984 4106 628 3988 
L 628 4550 
Q 988 4650 1302 4700 
Q 1616 4750 1894 4750 
Q 2613 4750 3031 4423 
Q 3450 4097 3450 3541 
Q 3450 3153 3228 2886 
Q 3006 2619 2597 2516 
z
" transform="scale(0.015625)"/>
      </defs>
      <use xlink:href="#DejaVuSans-31"/>
      <use xlink:href="#DejaVuSans-33" transform="translate(63.623047 0)"/>
     </g>
    </g>
    <g clip-path="url(#p5354174ed8)">
     <!-- CALL -->
     <g transform="translate(299.874653 286.982156) scale(0.06 -0.06)">
      <use xlink:href="#DejaVuSans-43"/>
      <use xlink:href="#DejaVuSans-41" transform="translate(69.824219 0)"/>
      <use xlink:href="#DejaVuSans-4c" transform="translate(138.232422 0)"/>
      <use xlink:href="#DejaVuSans-4c" transform="translate(193.945312 0)"/>
     </g>
    </g>
    <g clip-path="url(#p5354174ed8)">
     <!-- 14 -->
     <g transform="translate(303.547309 293.700844) scale(0.06 -0.06)">
      <defs>
       <path id="DejaVuSans-34" d="M 2419 4116 
L 825 1625 
L 2419 1625 
L 2419 4116 
z
M 2253 4666 
L 3047 4666 
L 3047 1625 
L 3713 1625 
L 3713 1100 
L 3047 1100 
L 3047 0 
L 2419 0 
L 2419 1100 
L 313 1100 
L 313 1709 
L 2253 4666 
z
" transform="scale(0.015625)"/>
      </defs>
      <use xlink:href="#DejaVuSans-31"/>
      <use xlink:href="#DejaVuSans-34" transform="translate(63.623047 0)"/>
     </g>
    </g>
    <g clip-path="url(#p5354174ed8)">
     <!-- EACCES -->
     <g transform="translate(295.479653 300.419531) scale(0.06 -0.06)">
      <use xlink:href="#DejaVuSans-45"/>
      <use xlink:href="#DejaVuSans-41" transform="translate(63.183594 0)"/>
      <use xlink:href="#DejaVuSans-43" transform="translate(129.841797 0)"/>
      <use xlink:href="#DejaVuSans-43" transform="translate(199.666016 0)"/>
      <use xlink:href="#DejaVuSans-45" transform="translate(269.490234 0)"/>
      <use xlink:href="#DejaVuSans-53" transform="translate(332.673828 0)"/>
     </g>
    </g>
    <g clip-path="url(#p5354174ed8)">
     <!-- macro.c -->
     <g transform="translate(295.402778 307.138219) scale(0.06 -0.06)">
      <use xlink:href="#DejaVuSans-6d"/>
      <use xlink:href="#DejaVuSans-61" transform="translate(97.412109 0)"/>
      <use xlink:href="#DejaVuSans-63" transform="translate(158.691406 0)"/>
      <use xlink:href="#DejaVuSans-72" transform="translate(213.671875 0)"/>
      <use xlink:href="#DejaVuSans-6f" transform="translate(252.535156 0)"/>
      <use xlink:href="#DejaVuSans-2e" transform="translate(311.966797 0)"/>
      <use xlink:href="#DejaVuSans-63" transform="translate(343.753906 0)"/>
     </g>
    </g>
    <g clip-path="url(#p5354174ed8)">
     <!-- func_M -->
     <g transform="translate(296.768246 313.856906) scale(0.06 -0.06)">
      <use xlink:href="#DejaVuSans-66"/>
      <use xlink:href="#DejaVuSans-75" transform="translate(35.205078 0)"/>
      <use xlink:href="#DejaVuSans-6e" transform="translate(98.583984 0)"/>
      <use xlink:href="#DejaVuSans-63" transform="translate(161.962891 0)"/>
      <use xlink:href="#DejaVuSans-5f" transform="translate(216.943359 0)"/>
      <use xlink:href="#DejaVuSans-4d" transform="translate(266.943359 0)"/>
     </g>
    </g>
    <g clip-path="url(#p5354174ed8)">
     <!-- int -->
     <g transform="translate(303.454028 320.742469) scale(0.06 -0.06)">
      <use xlink:href="#DejaVuSans-69"/>
      <use xlink:href="#DejaVuSans-6e" transform="translate(27.783203 0)"/>
      <use xlink:href="#DejaVuSans-74" transform="translate(91.162109 0)"/>
     </g>
    </g>
   </g>
   <g id="text_7">
    <g clip-path="url(#p5354174ed8)">
     <!-- i -->
     <g transform="translate(278.00458 80.812617) scale(0.06 -0.06)">
      <use xlink:href="#DejaVuSans-69"/>
     </g>
    </g>
    <g clip-path="url(#p5354174ed8)">
     <!-- 7 -->
     <g transform="translate(276.929267 87.531305) scale(0.06 -0.06)">
      <defs>
       <path id="DejaVuSans-37" d="M 525 4666 
L 3525 4666 
L 3525 4397 
L 1831 0 
L 1172 0 
L 2766 4134 
L 525 4134 
L 525 4666 
z
" transform="scale(0.015625)"/>
      </defs>
      <use xlink:href="#DejaVuSans-37"/>
     </g>
    </g>
    <g clip-path="url(#p5354174ed8)">
     <!-- IDENTIFIER -->
     <g transform="translate(262.195049 94.249992) scale(0.06 -0.06)">
      <use xlink:href="#DejaVuSans-49"/>
      <use xlink:href="#DejaVuSans-44" transform="translate(29.492188 0)"/>
      <use xlink:href="#DejaVuSans-45" transform="translate(106.494141 0)"/>
      <use xlink:href="#DejaVuSans-4e" transform="translate(169.677734 0)"/>
      <use xlink:href="#DejaVuSans-54" transform="translate(244.482422 0)"/>
      <use xlink:href="#DejaVuSans-49" transform="translate(305.566406 0)"/>
      <use xlink:href="#DejaVuSans-46" transform="translate(335.058594 0)"/>
      <use xlink:href="#DejaVuSans-49" transform="translate(392.578125 0)"/>
      <use xlink:href="#DejaVuSans-45" transform="translate(422.070312 0)"/>
      <use xlink:href="#DejaVuSans-52" transform="translate(485.253906 0)"/>
     </g>
    </g>
    <g clip-path="url(#p5354174ed8)">
     <!-- 13 -->
     <g transform="translate(275.020517 100.96868) scale(0.06 -0.06)">
      <use xlink:href="#DejaVuSans-31"/>
      <use xlink:href="#DejaVuSans-33" transform="translate(63.623047 0)"/>
     </g>
    </g>
    <g clip-path="url(#p5354174ed8)">
     <!-- i -->
     <g transform="translate(278.00458 107.687367) scale(0.06 -0.06)">
      <use xlink:href="#DejaVuSans-69"/>
     </g>
    </g>
    <g clip-path="url(#p5354174ed8)">
     <!-- macro.c -->
     <g transform="translate(266.875986 114.406055) scale(0.06 -0.06)">
      <use xlink:href="#DejaVuSans-6d"/>
      <use xlink:href="#DejaVuSans-61" transform="translate(97.412109 0)"/>
      <use xlink:href="#DejaVuSans-63" transform="translate(158.691406 0)"/>
      <use xlink:href="#DejaVuSans-72" transform="translate(213.671875 0)"/>
      <use xlink:href="#DejaVuSans-6f" transform="translate(252.535156 0)"/>
      <use xlink:href="#DejaVuSans-2e" transform="translate(311.966797 0)"/>
      <use xlink:href="#DejaVuSans-63" transform="translate(343.753906 0)"/>
     </g>
    </g>
    <g clip-path="url(#p5354174ed8)">
     <!-- func_M -->
     <g transform="translate(268.241455 121.124742) scale(0.06 -0.06)">
      <use xlink:href="#DejaVuSans-66"/>
      <use xlink:href="#DejaVuSans-75" transform="translate(35.205078 0)"/>
      <use xlink:href="#DejaVuSans-6e" transform="translate(98.583984 0)"/>
      <use xlink:href="#DejaVuSans-63" transform="translate(161.962891 0)"/>
      <use xlink:href="#DejaVuSans-5f" transform="translate(216.943359 0)"/>
      <use xlink:href="#DejaVuSans-4d" transform="translate(266.943359 0)"/>
     </g>
    </g>
    <g clip-path="url(#p5354174ed8)">
     <!-- int -->
     <g transform="translate(274.927236 128.010305) scale(0.06 -0.06)">
      <use xlink:href="#DejaVuSans-69"/>
      <use xlink:href="#DejaVuSans-6e" transform="translate(27.783203 0)"/>
      <use xlink:href="#DejaVuSans-74" transform="translate(91.162109 0)"/>
     </g>
    </g>
   </g>
   <g id="text_8">
    <g clip-path="url(#p5354174ed8)">
     <!-- 0 -->
     <g transform="translate(227.957719 128.145794) scale(0.06 -0.06)">
      <use xlink:href="#DejaVuSans-30"/>
     </g>
    </g>
    <g clip-path="url(#p5354174ed8)">
     <!-- 7 -->
     <g transform="translate(227.957719 134.864481) scale(0.06 -0.06)">
      <use xlink:href="#DejaVuSans-37"/>
     </g>
    </g>
    <g clip-path="url(#p5354174ed8)">
     <!-- LITERAL -->
     <g transform="translate(217.893657 141.583169) scale(0.06 -0.06)">
      <use xlink:href="#DejaVuSans-4c"/>
      <use xlink:href="#DejaVuSans-49" transform="translate(55.712891 0)"/>
      <use xlink:href="#DejaVuSans-54" transform="translate(85.205078 0)"/>
      <use xlink:href="#DejaVuSans-45" transform="translate(146.289062 0)"/>
      <use xlink:href="#DejaVuSans-52" transform="translate(209.472656 0)"/>
      <use xlink:href="#DejaVuSans-41" transform="translate(274.955078 0)"/>
      <use xlink:href="#DejaVuSans-4c" transform="translate(343.363281 0)"/>
     </g>
    </g>
    <g clip-path="url(#p5354174ed8)">
     <!-- 13 -->
     <g transform="translate(226.048969 148.301856) scale(0.06 -0.06)">
      <use xlink:href="#DejaVuSans-31"/>
      <use xlink:href="#DejaVuSans-33" transform="translate(63.623047 0)"/>
     </g>
    </g>
    <g clip-path="url(#p5354174ed8)">
     <!-- macro.c -->
     <g transform="translate(217.904438 155.020544) scale(0.06 -0.06)">
      <use xlink:href="#DejaVuSans-6d"/>
      <use xlink:href="#DejaVuSans-61" transform="translate(97.412109 0)"/>
      <use xlink:href="#DejaVuSans-63" transform="translate(158.691406 0)"/>
      <use xlink:href="#DejaVuSans-72" transform="translate(213.671875 0)"/>
      <use xlink:href="#DejaVuSans-6f" transform="translate(252.535156 0)"/>
      <use xlink:href="#DejaVuSans-2e" transform="translate(311.966797 0)"/>
      <use xlink:href="#DejaVuSans-63" transform="translate(343.753906 0)"/>
     </g>
    </g>
    <g clip-path="url(#p5354174ed8)">
     <!-- func_M -->
     <g transform="translate(219.269907 161.739231) scale(0.06 -0.06)">
      <use xlink:href="#DejaVuSans-66"/>
      <use xlink:href="#DejaVuSans-75" transform="translate(35.205078 0)"/>
      <use xlink:href="#DejaVuSans-6e" transform="translate(98.583984 0)"/>
      <use xlink:href="#DejaVuSans-63" transform="translate(161.962891 0)"/>
      <use xlink:href="#DejaVuSans-5f" transform="translate(216.943359 0)"/>
      <use xlink:href="#DejaVuSans-4d" transform="translate(266.943359 0)"/>
     </g>
    </g>
    <g clip-path="url(#p5354174ed8)">
     <!-- int -->
     <g transform="translate(225.955688 168.624794) scale(0.06 -0.06)">
      <use xlink:href="#DejaVuSans-69"/>
      <use xlink:href="#DejaVuSans-6e" transform="translate(27.783203 0)"/>
      <use xlink:href="#DejaVuSans-74" transform="translate(91.162109 0)"/>
     </g>
    </g>
   </g>
   <g id="text_9">
    <g clip-path="url(#p5354174ed8)">
     <!-- i -->
     <g transform="translate(104.361182 64.448324) scale(0.06 -0.06)">
      <use xlink:href="#DejaVuSans-69"/>
     </g>
    </g>
    <g clip-path="url(#p5354174ed8)">
     <!-- 7 -->
     <g transform="translate(103.28587 71.167011) scale(0.06 -0.06)">
      <use xlink:href="#DejaVuSans-37"/>
     </g>
    </g>
    <g clip-path="url(#p5354174ed8)">
     <!-- IDENTIFIER -->
     <g transform="translate(88.551651 77.885699) scale(0.06 -0.06)">
      <use xlink:href="#DejaVuSans-49"/>
      <use xlink:href="#DejaVuSans-44" transform="translate(29.492188 0)"/>
      <use xlink:href="#DejaVuSans-45" transform="translate(106.494141 0)"/>
      <use xlink:href="#DejaVuSans-4e" transform="translate(169.677734 0)"/>
      <use xlink:href="#DejaVuSans-54" transform="translate(244.482422 0)"/>
      <use xlink:href="#DejaVuSans-49" transform="translate(305.566406 0)"/>
      <use xlink:href="#DejaVuSans-46" transform="translate(335.058594 0)"/>
      <use xlink:href="#DejaVuSans-49" transform="translate(392.578125 0)"/>
      <use xlink:href="#DejaVuSans-45" transform="translate(422.070312 0)"/>
      <use xlink:href="#DejaVuSans-52" transform="translate(485.253906 0)"/>
     </g>
    </g>
    <g clip-path="url(#p5354174ed8)">
     <!-- 13 -->
     <g transform="translate(101.37712 84.604386) scale(0.06 -0.06)">
      <use xlink:href="#DejaVuSans-31"/>
      <use xlink:href="#DejaVuSans-33" transform="translate(63.623047 0)"/>
     </g>
    </g>
    <g clip-path="url(#p5354174ed8)">
     <!-- i -->
     <g transform="translate(104.361182 91.323074) scale(0.06 -0.06)">
      <use xlink:href="#DejaVuSans-69"/>
     </g>
    </g>
    <g clip-path="url(#p5354174ed8)">
     <!-- macro.c -->
     <g transform="translate(93.232588 98.041761) scale(0.06 -0.06)">
      <use xlink:href="#DejaVuSans-6d"/>
      <use xlink:href="#DejaVuSans-61" transform="translate(97.412109 0)"/>
      <use xlink:href="#DejaVuSans-63" transform="translate(158.691406 0)"/>
      <use xlink:href="#DejaVuSans-72" transform="translate(213.671875 0)"/>
      <use xlink:href="#DejaVuSans-6f" transform="translate(252.535156 0)"/>
      <use xlink:href="#DejaVuSans-2e" transform="translate(311.966797 0)"/>
      <use xlink:href="#DejaVuSans-63" transform="translate(343.753906 0)"/>
     </g>
    </g>
    <g clip-path="url(#p5354174ed8)">
     <!-- func_M -->
     <g transform="translate(94.598057 104.760449) scale(0.06 -0.06)">
      <use xlink:href="#DejaVuSans-66"/>
      <use xlink:href="#DejaVuSans-75" transform="translate(35.205078 0)"/>
      <use xlink:href="#DejaVuSans-6e" transform="translate(98.583984 0)"/>
      <use xlink:href="#DejaVuSans-63" transform="translate(161.962891 0)"/>
      <use xlink:href="#DejaVuSans-5f" transform="translate(216.943359 0)"/>
      <use xlink:href="#DejaVuSans-4d" transform="translate(266.943359 0)"/>
     </g>
    </g>
    <g clip-path="url(#p5354174ed8)">
     <!-- int -->
     <g transform="translate(101.283838 111.646011) scale(0.06 -0.06)">
      <use xlink:href="#DejaVuSans-69"/>
      <use xlink:href="#DejaVuSans-6e" transform="translate(27.783203 0)"/>
      <use xlink:href="#DejaVuSans-74" transform="translate(91.162109 0)"/>
     </g>
    </g>
   </g>
  </g>
 </g>
 <defs>
  <clipPath id="p5354174ed8">
   <rect x="57.6" y="41.472" width="357.12" height="266.112"/>
  </clipPath>
 </defs>
</svg>
